# xmcd
#
# Track frame offsets:
# 150
# 7984
# 19639
# 34818
# 44143
# 54831
# 75043
# 86452
# 100170
# 125876
#
# Disc length: 1870 seconds
#
#
# Revision: 4
# Processed by: cddbd v1.5.2PL0 Copyright (c) Steve Scherf et al.
# Submitted via: FreeRIP 2.96 
#
DISCID=6c074c0a
DTITLE=Statler Brothers, The - Farewell Concert CD 02
DYEAR=2003
DGENRE=Country and Gospel
TTITLE0=Spoken - The Rabbi, The Hindu Holy Man And The Lawyer
TTITLE1=I'll Go To My Grave Loving You
TTITLE2=Bus Fumes (Band Instrumental)
TTITLE3=Spoken - Retiring
TTITLE4=A Place On Calvary
TTITLE5=How Great Thou Art
TTITLE6=This Old House
TTITLE7=Thank You World
TTITLE8=Spoken - The Statlers Thank Those Involved With Their Career
TTITLE9=Amazing Grace
EXTD=Copendia
EXTT0=
EXTT1=
EXTT2=
EXTT3=
EXTT4=
EXTT5=
EXTT6=
EXTT7=
EXTT8=
EXTT9=
PLAYORDER=
